<!-- RexKramer1; GPL-3.0; normalized 2026-09-09 by enuzzo. Original and licence in parent directory. -->
<svg viewBox="-1.3255335679650306 -1.2503648018836975 19.82578079223633 11.204808158874512" xmlns="http://www.w3.org/2000/svg"><g><path d="M 8.5860336,0.11693042 8.4297886,0.44118121 8.2853553,1.0607259 8.22689,1.9209997 8.2352429,2.7144562 0.16704425,2.7478648 0.04176166,2.8814995 0.05846599,3.2489952 3.4410959,3.725069 l 4.693921,0.4510174 0.1479778,0.076146 0.0502,0.1092586 0.1063059,2.27081 0.032482,1.0541992 -1.4174105,0.2303293 0.00295,0.431129 1.4321756,0.094494 0.049335,-0.078864 0.033347,0.2235582 0.051781,-8.62e-4 0.025353,-0.2077192 0.035077,0.057985 1.4410333,-0.088588 -0.003,-0.428176 L 8.7170767,7.6865 8.7500656,6.6364411 8.8470059,4.3142439 8.9090176,4.2404204 9.1393469,4.1695499 13.660296,3.7384206 17.127047,3.2600447 17.132952,2.8584448 17.038458,2.7462331 8.9414994,2.7226085 8.9533104,1.8957855 8.8706282,1.0335273 8.7584165,0.44884541 Z" fill="#000"></path></g></svg>
