<!-- RexKramer1; GPL-3.0; normalized 2026-09-09 by enuzzo. Original and licence in parent directory. -->
<svg viewBox="-4.323090060949325 -4.189960553646087 64.86491897583008 60.56425216674805" xmlns="http://www.w3.org/2000/svg"><g><path d="M 27.214285,0.28348215 26.316592,1.3229166 26.03311,2.078869 l -0.236235,1.0866816 -0.189114,0.1419098 -0.100226,1.3196433 0.183748,0.2672696 -0.11693,7.0659377 c 0,0 -7.834338,6.38106 -7.901156,6.314243 -0.06682,-0.06682 0.100226,-2.138156 0.100226,-2.138156 l 0.217157,-0.200452 -0.05011,-1.987818 -0.150339,-0.50113 -0.985557,0.0167 -0.200452,-0.26727 -0.250565,0.300679 -0.935443,-0.01671 -0.08352,0.918739 -0.0167,1.436574 0.183748,0.250565 -0.0167,1.703843 0.233861,1.637026 h 0.183748 l -0.03341,0.233861 -6.0469736,4.927782 0.033409,-2.171565 0.1837476,-0.200452 -0.050113,-2.021226 -0.1837475,-0.451018 -0.9354434,0.01671 -0.1336349,-0.233861 -0.2338607,0.183748 -0.8853303,0.01671 -0.1503391,0.484426 -0.083522,1.052374 0.033409,0.985556 0.2004523,0.200452 -0.033409,1.703843 0.2338607,1.620322 h 0.1670433 l 0.050113,0.183748 -3.4745038,3.123711 0.050113,-2.589173 -0.083522,-0.267269 -0.2839738,-0.267269 -0.2839739,0.367495 -0.066818,0.885331 -0.066817,2.422129 -3.59143418,3.474505 -0.0835217,1.586913 0.0668174,1.00226 0.28397386,1.302938 8.76978122,-5.996858 1.3530525,-0.434313 14.936676,-8.646334 -0.02363,10.890439 0.4016,6.898066 -0.02362,0.543341 -6.99256,6.212982 0.212612,2.29148 7.252418,-0.661459 0.236235,2.291483 0.259857,0.897694 0.236236,0.614209 0.259858,-0.779574 0.283483,-0.755954 0.07087,-1.157552 0.07087,-1.181174 7.488653,0.637834 v -2.29148 l -6.92169,-6.212985 0.448847,-7.323289 0.02363,-10.914061 15.591517,9.024182 1.299292,0.307105 10.016371,5.78776 0.177524,-1.570329 0.13936,-1.369466 -0.364137,-0.839966 -3.897879,-3.118305 0.02363,-3.118302 -0.212612,-0.637835 -0.330729,-0.354353 -0.236236,0.330729 -0.141742,0.992188 0.02363,2.173362 -4.181361,-3.378162 v -0.283482 h 0.236236 l 0.330729,-1.937128 v -1.606399 l 0.188986,-0.09449 -0.04725,-1.937127 -0.188989,-0.425224 h -0.956752 l -0.165365,-0.27167 -0.212611,0.236235 -0.862259,-0.05906 -0.153551,0.224424 -0.165364,1.204799 -0.03544,1.122116 0.224422,0.212612 0.0118,1.511905 0.08268,0.838634 -6.378347,-5.126302 0.0118,-0.295293 h 0.259861 c 0,0 0.129929,-1.700893 0.14174,-1.74814 0.0118,-0.04725 0.08268,-1.452846 0.08268,-1.452846 l 0.188989,-0.188988 -0.01183,-1.630023 -0.212611,-0.74414 -0.956752,0.01181 -0.212611,-0.318918 -0.248047,0.295294 -0.838634,-0.03543 -0.177178,0.342541 -0.153551,0.862258 0.0118,1.263858 0.236236,0.2008 -0.04725,1.192987 0.118115,0.826823 -7.961122,-6.283854 -0.07088,-7.157924 0.165404,-0.2716697 V 3.6852677 L 28.690755,3.000186 28.442708,2.1379278 28.017486,1.1457403 Z" fill="#000"></path></g></svg>
