<!-- RexKramer1; GPL-3.0; normalized 2026-09-09 by enuzzo. Original and licence in parent directory. -->
<svg viewBox="-2.7996450424194337 -2.89987420886755 35.01562614440918 43.0170280456543" xmlns="http://www.w3.org/2000/svg"><g><path d="m 14.68312,0.06681738 -0.801809,0.70158251 -0.801809,2.77292121 -0.183748,1.5702084 -0.0167,10.7910075 -12.41132832,6.598216 -0.30067823,0.88533 0.050113,0.567948 0.56794774,-0.267269 12.11064981,-2.722809 0.03341,3.374278 H 12.778829 L 12.728719,23.402788 12.57838,23.068701 12.428041,22.868249 H 10.92465 l -0.283974,0.350791 -0.06682,0.684878 0.0167,1.603617 0.167044,1.586912 0.434313,1.870887 1.202712,-0.03341 1.219418,1.369759 0.584652,1.820772 -5.7295906,3.741772 0.066817,1.286235 5.9300426,-1.820773 0.167044,0.768401 h 0.150339 l 0.150339,-0.768401 5.913338,1.753958 -0.06682,-1.286235 -5.545843,-3.725069 0.534539,-1.804069 1.169305,-1.302941 1.219417,0.0167 0.3842,-1.870887 0.183747,-1.670435 -0.06682,-1.937704 -0.06682,-0.434313 -0.133635,-0.200452 h -1.486687 l -0.183748,0.183748 -0.183747,0.467722 -0.03341,0.801808 -0.167043,4e-6 -0.0167,-3.390982 12.361215,2.789626 0.484426,0.267269 0.01669,-0.684878 L 28.831693,22.350405 16.386963,15.885832 16.45378,5.1950514 16.320145,3.5580256 15.484928,0.80180856 Z" fill="#000"></path></g></svg>
