<!-- RexKramer1; GPL-3.0; normalized 2026-09-09 by enuzzo. Original and licence in parent directory. -->
<svg viewBox="-2.028409118652344 -2.273518706560135 30.605167617797854 31.81855033874512" xmlns="http://www.w3.org/2000/svg"><g><path d="M 13.315013,-0.07913591 12.635317,0.54103041 12.077239,1.5617503 11.689672,3.1715925 11.738987,10.175801 9.5161334,11.281923 9.5482686,10.903652 9.4972695,9.1204527 9.3763733,8.8025783 8.1008554,8.8255211 7.9968212,9.0862974 7.8574564,9.3591945 l 9.708e-4,1.4647065 0.1597315,0.707339 0.2005862,-0.02537 0.015109,0.377859 -7.55296685,3.491453 -0.51491359,1.906259 0.005566,0.637811 0.5698895,-1.020823 4.10157315,-1.039831 0.143591,0.211366 0.1414264,-0.03667 0.068188,-0.307713 2.1331049,-0.561977 0.1318827,0.223282 0.1536497,0.01047 0.1152271,-0.331747 0.7778971,-0.195785 1.1455938,-0.02181 0.1101151,0.43609 0.1300278,0.01068 0.1261118,-0.438152 1.629856,-0.02603 -0.01649,4.878585 0.326885,2.265091 0.268919,1.037127 -3.9563929,2.786771 -0.1858887,0.355988 0.066375,0.838086 4.4683405,-0.972157 0.18387,0.766186 0.300231,0.564367 0.295282,-0.0026 0.127244,-0.308229 0.207657,-0.568799 0.125493,-0.509016 4.426704,1.024465 0.002,-1.122176 -4.052908,-2.858621 0.387977,-1.562597 0.209677,-1.690975 -0.0069,-4.854755 1.665291,-0.02634 0.09768,0.365325 0.188981,-0.0016 0.05597,-0.354855 1.146005,0.02544 0.804818,0.181972 0.08556,0.329995 0.200895,0.01006 0.06839,-0.28409 2.214589,0.65397 0.06174,0.306579 0.165462,0.01037 0.12745,-0.284606 4.072881,1.086616 0.457179,0.9528 0.141736,-0.0012 -0.01738,-0.637706 -0.583022,-1.837616 -7.460955,-3.561236 -0.01459,-0.318802 0.248141,0.0096 0.14695,-0.757264 -0.06106,-1.5823039 -0.227816,-0.3878143 -1.216462,0.022427 -0.175109,0.2377722 -0.0308,0.5318176 0.05008,1.676897 -2.147114,-1.044368 -0.0261,-7.0516601 -0.42876,-1.7562768 -0.552803,-1.08189874 z" fill="#000"></path></g></svg>
